<?xml version="1.0" encoding="UTF-8"?>
<svg version="1.1" xmlns="http://www.w3.org/2000/svg" width="1024" height="1024">
<path d="M0 0 C12.79231897 0.00414909 25.58463746 0.00650722 38.37695698 0.00808236 C130.61157317 0.01975629 222.84632322 0.05233387 348.38566209 0.55175453 C351.94802511 0.56733309 355.51039004 0.58235202 359.07275631 0.59716755 C372.24445139 0.65200686 385.41609907 0.71196444 398.58771946 0.78261333 C402.43271057 0.80320478 406.27770293 0.82193219 410.12271167 0.83890682 C414.45328545 0.85825651 418.78380636 0.88228788 423.11433257 0.91029721 C424.66148123 0.91958696 426.20864045 0.92728529 427.75580563 0.93321544 C429.84464957 0.94151657 431.93337088 0.95577412 434.0221696 0.97158008 C435.7512641 0.98125891 435.7512641 0.98125891 437.5152898 0.99113327 C441.00319266 1.13770218 444.36646694 1.60167817 447.81510784 2.12979847 C448.47510784 2.12979847 449.13510784 2.12979847 449.81510784 2.12979847 C449.81510784 2.78979847 449.81510784 3.44979847 449.81510784 4.12979847 C450.47510784 4.45979847 451.13510784 4.78979847 451.81510784 5.12979847 C451.81510784 5.78979847 451.81510784 6.44979847 451.81510784 7.12979847 C453.23372267 9.11050597 454.76838335 10.97584668 456.30729534 12.86417347 C460.52677046 19.20431743 460.11911388 25.88370837 460.13098003 33.22156483 C460.14559802 35.08333656 460.14559802 35.08333656 460.16051133 36.98271983 C460.1873179 40.45536868 460.20155547 43.92797389 460.21365409 47.40070104 C460.22896705 51.21794327 460.25531039 55.03511415 460.27987339 58.85230595 C460.32718629 66.53078408 460.36256108 74.20927829 460.39384863 81.88783678 C460.42031427 88.3512306 460.45095522 94.81459358 460.48389484 101.2779575 C460.92162395 187.86634848 460.97730896 274.45645371 461.00071384 409.08985477 C461.00070272 409.81482854 461.00069161 410.53980231 461.00068016 411.28674498 C461.00064552 413.48653781 461.00060813 415.68633064 461.00056972 417.88612347 C461.0005572 418.61297763 461.00054469 419.33983178 461.0005318 420.08871182 C461.00042598 426.10727279 461.00042598 426.10727279 461.00035357 428.90975774 C460.99975986 452.16523966 461.00747304 475.42070731 461.02091838 498.67618519 C461.03626772 525.23095588 461.04488757 551.78571725 461.04395516 578.34049266 C461.04388058 581.16024412 461.04383184 583.97999558 461.04380085 586.79974705 C461.04378336 587.84011687 461.04378336 587.84011687 461.04376553 588.90150426 C461.04373496 599.98417333 461.05006893 611.06682966 461.05873311 622.14949496 C461.06718532 633.1841122 461.06804329 644.21871453 461.06162379 655.25333424 C461.05835522 661.20993839 461.05831734 667.16649626 461.06697704 673.12309605 C461.07481409 678.56811824 461.07344002 684.01305713 461.06469291 689.45807723 C461.0631532 691.42552263 461.06499173 693.39297418 461.07055298 695.36041231 C461.0776107 698.03337305 461.07232207 700.70604083 461.06399681 703.37899166 C461.06896499 704.14072825 461.07393317 704.90246483 461.0790519 705.68728435 C461.01932966 714.76084949 459.47992462 722.10105981 453.16276409 728.91104847 C444.69413522 737.08526692 434.98322092 738.73182348 423.5757661 738.62478309 C422.38619617 738.62969807 421.19662624 738.63461304 419.97100873 738.63967695 C416.68574926 738.64923194 413.40110524 738.64099049 410.1158889 738.6250646 C406.53554884 738.61216122 402.95526217 738.62261178 399.37491705 738.6300404 C393.10538305 738.63985292 386.83599767 738.63486107 380.56647541 738.62007862 C371.24342678 738.5981576 361.92047888 738.59922708 352.59741127 738.60491289 C336.91036347 738.61381069 321.22337952 738.60397174 305.53634502 738.58328396 C289.99907845 738.56282629 274.4618395 738.55023054 258.92455913 738.54824596 C257.95785524 738.54811613 256.99115135 738.5479863 255.9951534 738.54785253 C252.07096535 738.54735258 248.14677729 738.54691261 244.22258922 738.54655044 C208.46320831 738.54324784 172.70386585 738.52090405 136.94450237 738.48648792 C103.1915712 738.45401844 69.43865943 738.43275591 35.68571331 738.42496448 C34.64592871 738.42472144 33.60614411 738.4244784 32.53485089 738.42422799 C27.29762891 738.42300591 22.06040693 738.4218026 16.82318495 738.4206062 C15.78969394 738.42036993 14.75620293 738.42013366 13.69139401 738.41989023 C11.60738253 738.41941606 9.52337105 738.4189459 7.43935956 738.41847977 C-25.75199895 738.41100479 -58.9433539 738.39522876 -92.13470824 738.37728059 C-101.85092883 738.37203703 -111.56714937 738.36709307 -121.28337048 738.36291867 C-141.71682151 738.35403498 -162.15026364 738.34237232 -182.58370624 738.32135263 C-191.03455798 738.31272204 -199.48540381 738.30554849 -207.93625973 738.30283695 C-214.94323766 738.3005816 -221.95020255 738.29501084 -228.95717378 738.28492695 C-232.48386076 738.27994376 -236.01053031 738.27649141 -239.53722112 738.27739677 C-243.34001922 738.27752219 -247.14276085 738.2715391 -250.94555043 738.26401955 C-252.03494642 738.26550317 -253.12434241 738.26698679 -254.2467504 738.26851537 C-261.78644332 738.24441899 -269.42424979 738.14331341 -276.82458223 736.56782277 C-279.55281772 736.06151916 -281.51789719 736.44399976 -284.18489216 737.12979847 C-284.18489216 735.4631318 -284.18489216 733.79646513 -284.18489216 732.12979847 C-288.25072334 728.38914108 -288.25072334 728.38914108 -293.18489216 726.12979847 C-293.32829681 725.25032773 -293.47170145 724.37085699 -293.61945169 723.46473562 C-293.95786753 721.46877738 -294.31535921 719.47570051 -294.71135645 717.49036407 C-296.34696562 708.94583882 -296.46317429 700.53596688 -296.43213032 691.87371021 C-296.43372145 690.2527818 -296.43618805 688.63185406 -296.43944673 687.01092815 C-296.44582403 682.58374396 -296.43981963 678.15665207 -296.43168245 673.729474 C-296.42507432 668.94114957 -296.43006147 664.15283493 -296.43356465 659.36450916 C-296.43860023 649.98097129 -296.43296837 640.59746875 -296.42371435 631.21393526 C-296.41327698 620.22870977 -296.41340217 609.24349172 -296.41388693 598.25826221 C-296.41438763 578.58872461 -296.40523476 558.91920324 -296.39070271 539.24967152 C-296.37670961 520.29914766 -296.36952796 501.34863812 -296.3701949 482.39810902 C-296.37023485 481.23796606 -296.37027481 480.07782311 -296.37031598 478.88252432 C-296.37035633 477.7241274 -296.37039669 476.56573049 -296.37043826 475.37223065 C-296.37113615 453.66580355 -296.36518045 431.95938239 -296.35628505 410.25295724 C-296.35373227 403.72708584 -296.35235066 397.2012155 -296.35195329 390.67534363 C-296.34893231 342.48393013 -296.23608438 294.3115155 -295.18489216 246.12979847 C-295.84489216 245.79979847 -296.50489216 245.46979847 -297.18489216 245.12979847 C-296.68989216 244.13979847 -296.68989216 244.13979847 -296.18489216 243.12979847 C-296.08946447 241.36046137 -296.05858763 239.58749799 -296.05790852 237.81558948 C-296.0550887 236.68823383 -296.05226887 235.56087818 -296.0493636 234.39936024 C-296.05138783 233.15669391 -296.05341206 231.91402759 -296.05549763 230.63370472 C-296.05374531 229.3296468 -296.05199299 228.02558887 -296.05018757 226.68201404 C-296.04561898 223.09945841 -296.04740045 219.51693149 -296.05056666 215.93437534 C-296.05309321 212.19035217 -296.05075189 208.4463315 -296.04918049 204.70230823 C-296.04735966 198.41413641 -296.04976284 192.12597632 -296.05452107 185.83780628 C-296.05996352 178.56123784 -296.05820081 171.28469741 -296.05269466 164.00812965 C-296.04816107 157.76776758 -296.04751419 151.52741396 -296.05013333 145.28705078 C-296.05169475 141.55682309 -296.05189356 137.82660857 -296.04859684 134.09638172 C-296.0451799 129.93953492 -296.0499119 125.78273666 -296.05549763 121.62589222 C-296.05246128 119.76189274 -296.05246128 119.76189274 -296.0493636 117.8602367 C-296.05218342 116.73288105 -296.05500325 115.6055254 -296.05790852 114.44400745 C-296.05828555 113.4602866 -296.05866257 112.47656574 -296.05905102 111.46303516 C-296.03080111 109.10598524 -296.03080111 109.10598524 -297.18489216 107.12979847 C-296.52489216 107.12979847 -295.86489216 107.12979847 -295.18489216 107.12979847 C-295.3471529 105.9840636 -295.50941365 104.83832874 -295.67659138 103.65787464 C-296.21661548 99.31547358 -296.32939447 95.05206218 -296.31770466 90.68057972 C-296.31911457 89.88148685 -296.32052449 89.08239399 -296.32197712 88.25908619 C-296.32410928 85.65344516 -296.3178102 83.04792721 -296.30989216 80.44229847 C-296.30834126 79.54883716 -296.30679036 78.65537586 -296.30519246 77.73483997 C-296.27968223 65.12634062 -296.15873183 52.51957761 -295.86549519 39.91431385 C-295.82870776 38.32015831 -295.79468811 36.72593626 -295.76356648 35.13166004 C-295.71839662 32.90932043 -295.66066486 30.68767054 -295.59895466 28.46573597 C-295.56753376 27.21325062 -295.53611287 25.96076527 -295.50373982 24.67032581 C-295.16843478 20.94705347 -294.24319988 17.70576455 -293.18489216 14.12979847 C-293.18489216 12.80979847 -293.18489216 11.48979847 -293.18489216 10.12979847 C-292.50426716 10.08854847 -291.82364216 10.04729847 -291.12239216 10.00479847 C-287.53961414 8.93758799 -285.75866878 7.1840806 -283.12629841 4.60245472 C-278.48543682 1.08212309 -273.35561108 0.8686624 -267.71005391 0.81293445 C-266.96810436 0.80308997 -266.22615481 0.79324549 -265.46172194 0.78310269 C-262.94700529 0.7524924 -260.43240701 0.7362181 -257.91755818 0.7201305 C-256.06499398 0.70151763 -254.2124365 0.68222608 -252.35988568 0.66232639 C-247.1535391 0.60977428 -241.94716851 0.57139222 -236.74067901 0.53616815 C-233.33336609 0.51231036 -229.92609649 0.48499779 -226.51881741 0.4567371 C-151.01521287 -0.16222078 -75.50544521 -0.02455805 0 0 Z " fill="#1F2020" transform="translate(429.1848921626806,141.87020153179765)"/>
<path d="M0 0 C1.15154572 -0.05804558 1.15154572 -0.05804558 2.32635498 -0.11726379 C9.45211734 -0.45818516 16.58131649 -0.6660171 23.71312237 -0.83123875 C28.50271827 -0.94488223 33.28128914 -1.10319033 38.06494141 -1.37109375 C68.92865631 -3.05676122 68.92865631 -3.05676122 76.75186157 2.79879761 C81.5762857 8.41580014 84.29667587 14.64336964 86.63844299 21.60971069 C88.08546916 25.64410681 90.18634776 29.08860647 92.4855957 32.68188477 C93.28323539 34.02547693 94.07664309 35.37159654 94.86450195 36.72094727 C95.29649902 37.45474609 95.72849609 38.18854492 96.17358398 38.94458008 C104.70108092 53.44493469 113.20227253 67.96085663 121.6730957 82.49438477 C128.62308549 94.41741136 135.59372087 106.32822988 142.58355713 118.22793579 C144.90856324 122.18745912 147.22409826 126.15240961 149.53637695 130.11938477 C150.7068121 132.11946539 151.87737715 134.11947001 153.0480957 136.11938477 C153.57733643 137.03155762 154.10657715 137.94373047 154.65185547 138.88354492 C155.14097412 139.7167627 155.63009277 140.54998047 156.1340332 141.40844727 C156.55475098 142.12983887 156.97546875 142.85123047 157.40893555 143.59448242 C158.66556708 145.48307002 160.0141453 146.95500924 161.6730957 148.49438477 C162.08362183 147.16842285 162.08362183 147.16842285 162.50244141 145.81567383 C163.57947755 142.7599909 164.81371447 140.16724784 166.40356445 137.35375977 C166.95133545 136.37930908 167.49910645 135.4048584 168.06347656 134.40087891 C168.65652588 133.35923584 169.2495752 132.31759277 169.8605957 131.24438477 C170.79174194 129.59587524 170.79174194 129.59587524 171.74169922 127.9140625 C178.02120526 116.82197452 184.39593632 105.78455467 190.78637695 94.75610352 C192.66064743 91.51590507 194.52750271 88.27155404 196.3918457 85.02563477 C202.75960448 73.94523243 209.19194014 62.90943244 215.7355957 51.93188477 C221.5972972 42.09781407 227.28574252 32.18217491 232.80615234 22.15234375 C233.8296094 20.30066648 234.87322066 18.45992044 235.94088745 16.63337708 C237.73451094 13.5119984 237.73451094 13.5119984 239.09437561 10.13116455 C243.22366787 1.47336394 243.22366787 1.47336394 247.4876976 -0.23086929 C252.98013666 -1.3727491 258.56670443 -1.0214164 264.13793945 -0.81030273 C265.94009156 -0.78856867 267.74231965 -0.77247065 269.54457092 -0.76174927 C274.26965694 -0.71795738 278.98952563 -0.5952819 283.71264648 -0.45654297 C288.53539126 -0.33018462 293.35888117 -0.28397612 298.18286133 -0.22827148 C305.20656489 -0.13313902 312.22914238 -0.01538841 319.25097656 0.17456055 C319.99222275 0.19138885 320.73346893 0.20821716 321.49717712 0.22555542 C326.55619473 0.3774838 326.55619473 0.3774838 327.6730957 1.49438477 C327.77306014 3.74418783 327.80050001 5.99720601 327.80173016 8.24922848 C327.80348319 8.96734194 327.80523623 9.68545541 327.80704239 10.42532989 C327.8117412 12.86218014 327.80922701 15.29897172 327.80680847 17.73582458 C327.8086745 19.48830291 327.81097436 21.24078082 327.81367379 22.99325806 C327.81982401 27.83281107 327.81965444 32.67234689 327.81847942 37.51190293 C327.81827622 42.72192729 327.82378638 47.93194601 327.82853699 53.14196777 C327.83686165 63.35811332 327.83959264 73.5742531 327.84014937 83.79040175 C327.84062366 92.08984796 327.84267402 100.38929226 327.84584999 108.68873787 C327.8546614 132.19114893 327.85926859 155.69355542 327.85851952 179.19596814 C327.85845958 181.09854155 327.85845958 181.09854155 327.85839844 183.03955078 C327.85835756 184.30947194 327.85831668 185.57939309 327.85827456 186.88779671 C327.85786791 207.47904335 327.86744076 228.07027173 327.8815368 248.66151308 C327.89587828 269.77696742 327.90280822 290.89241283 327.90194303 312.00787216 C327.90161029 323.87366352 327.90439076 335.73943572 327.91512108 347.6052227 C327.92419682 357.70650914 327.92642556 367.80776774 327.91961166 377.90905648 C327.9163316 383.06768447 327.91634285 388.22625897 327.9249649 393.38488197 C327.93276577 398.10047407 327.93146497 402.81596968 327.92268077 407.53155924 C327.9211315 409.24420543 327.92301484 410.95685861 327.92854085 412.66949659 C327.93551958 414.98435058 327.93037229 417.29885839 327.92198467 419.61369991 C327.92231072 421.54832133 327.92231072 421.54832133 327.92264336 423.522026 C327.6730957 426.49438477 327.6730957 426.49438477 325.6730957 428.49438477 C323.13024902 428.74162292 323.13024902 428.74162292 319.87817383 428.73730469 C318.6635144 428.74038132 317.44885498 428.74345795 316.1973877 428.74662781 C314.87968384 428.73944229 313.56197998 428.73225677 312.2043457 428.72485352 C310.8443608 428.72366166 309.48437505 428.72320857 308.12438965 428.72346497 C305.27289686 428.72189982 302.42152957 428.713608 299.57006836 428.70019531 C295.91133494 428.68320539 292.2527395 428.67938097 288.59397125 428.6801405 C285.78532591 428.67986882 282.97671085 428.67438794 280.16807556 428.66713905 C278.16165536 428.6624003 276.15522879 428.66067578 274.14880371 428.65898132 C272.93414429 428.65260147 271.71948486 428.64622162 270.46801758 428.63964844 C268.85824036 428.63393074 268.85824036 428.63393074 267.21594238 428.62809753 C264.6730957 428.49438477 264.6730957 428.49438477 262.6730957 427.49438477 C262.1780957 261.17438477 262.1780957 261.17438477 261.6730957 91.49438477 C260.0230957 94.79438477 258.3730957 98.09438477 256.6730957 101.49438477 C254.88314922 104.6981489 253.0766673 107.883139 251.2355957 111.05688477 C246.61036207 119.08520788 242.05852613 127.1510399 237.5480957 135.24438477 C232.48852334 144.30679637 227.31830436 153.289759 222.02172852 162.21508789 C210.08180864 182.39450352 198.41072089 202.73664652 186.91137695 223.17016602 C186.32171143 224.21744873 185.7320459 225.26473145 185.12451172 226.34375 C184.02501674 228.29898623 182.92769502 230.25544687 181.83300781 232.21337891 C180.87534166 233.91769469 179.90211252 235.61340653 178.90991211 237.29785156 C177.51823055 239.66917321 177.51823055 239.66917321 176.1809082 243.06860352 C171.69397948 247.40876354 165.76213289 246.47711255 159.7980957 246.43188477 C158.53094727 246.48022461 157.26379883 246.52856445 155.95825195 246.57836914 C146.99000446 246.59251464 146.99000446 246.59251464 143.69946289 243.84863281 C142.08486055 241.48003154 140.88884345 239.08979869 139.6730957 236.49438477 C138.56070277 234.57945346 137.43495256 232.67223804 136.2980957 230.77172852 C135.08687711 228.66009962 133.87867628 226.54673761 132.6730957 224.43188477 C131.34028322 222.10736497 130.00694327 219.78315388 128.6730957 217.45922852 C128.33753662 216.87386322 128.00197754 216.28849792 127.65625 215.68539429 C124.35924228 209.93703863 121.01918594 204.21425826 117.6730957 198.49438477 C110.92972972 186.95484847 104.24846751 175.38002444 97.57739258 163.79858398 C95.65802908 160.46824225 93.73627217 157.13929329 91.8137207 153.81079102 C84.06390101 140.39241357 76.35216186 126.95339319 68.6730957 113.49438477 C64.7130957 106.56438477 60.7530957 99.63438477 56.6730957 92.49438477 C56.3430957 203.04438477 56.0130957 313.59438477 55.6730957 427.49438477 C53.00209288 428.82988618 50.96078346 428.62152477 47.9699707 428.6237793 C46.1780127 428.62850754 46.1780127 428.62850754 44.34985352 428.6333313 C43.05402344 428.63130707 41.75819336 428.62928284 40.4230957 428.62719727 C39.08553042 428.62787066 37.74796525 428.62884098 36.41040039 428.63009644 C33.60602657 428.63157175 30.80168458 428.62942419 27.99731445 428.62475586 C24.3991238 428.61905866 20.80100774 428.62233855 17.20281982 428.62832832 C14.44050533 428.63193842 11.67820858 428.63079328 8.91589355 428.62820053 C6.94270784 428.62720714 4.96952145 428.63024897 2.99633789 428.6333313 C1.80169922 428.63017914 0.60706055 428.62702698 -0.6237793 428.6237793 C-1.67919922 428.6229837 -2.73461914 428.62218811 -3.82202148 428.62136841 C-6.3269043 428.49438477 -6.3269043 428.49438477 -8.3269043 427.49438477 C-8.3497682 373.24152529 -8.36740126 318.9886663 -8.37796963 264.73580295 C-8.37922041 258.33802878 -8.38051472 251.94025462 -8.38183594 245.54248047 C-8.38209825 244.26874089 -8.38236056 242.9950013 -8.38263082 241.68266355 C-8.38698806 221.02925215 -8.39487591 200.37584351 -8.40405709 179.72243375 C-8.41339212 158.54712673 -8.41895959 137.37182116 -8.42099279 116.19651216 C-8.42236833 103.11888584 -8.4267206 90.04126734 -8.43482076 76.96364342 C-8.44008637 68.00894643 -8.44170902 59.05425351 -8.44040567 50.09955508 C-8.439762 44.92486993 -8.44078308 39.75019849 -8.44610977 34.57551575 C-8.45094258 29.84639197 -8.45124374 25.11729127 -8.44780319 20.38816648 C-8.44737738 18.66945165 -8.44867411 16.95073543 -8.45178748 15.23202337 C-8.45574956 12.91146409 -8.45366889 10.59099019 -8.44995213 8.27043247 C-8.45033185 6.97672531 -8.45071157 5.68301814 -8.45110279 4.35010773 C-8.21623943 -1.05015649 -4.47744113 0.20869155 0 0 Z " fill="#FEFEFE" transform="translate(352.326904296875,297.505615234375)"/>
<path d="M0 0 C5.25773193 0.01874414 8.29600064 3.5258457 11.9375 6.875 C15.88706141 10.43438396 19.81724632 13.93242672 24.09375 17.09765625 C24.73965088 17.57799316 25.38555176 18.05833008 26.05102539 18.55322266 C27.28373824 19.45777576 28.52746146 20.34756185 29.78295898 21.22021484 C32.53932949 23.25998504 33.87994562 24.5223643 34.7265625 27.890625 C33.70909115 32.24496474 31.44462824 34.59911788 28.4375 37.8125 C27.32403118 39.05335238 26.21204524 40.29553705 25.1015625 41.5390625 C24.56305664 42.13493164 24.02455078 42.73080078 23.46972656 43.34472656 C21.65424051 45.38941019 19.96913133 47.51268068 18.3125 49.6875 C13.2864223 56.2646878 7.97679675 62.6126533 2.69921875 68.98828125 C-3.30317185 76.24690897 -9.24389155 83.53713627 -15.02685547 90.97192383 C-18.5282803 95.4519718 -22.17769097 99.78823541 -25.87573242 104.10644531 C-29.66736734 108.55482993 -33.27234864 113.1320992 -36.85742188 117.74755859 C-40.57878994 122.51672937 -44.44501548 127.14838898 -48.38476562 131.73828125 C-49.59724737 133.15254032 -50.79906723 134.57592094 -52 136 C-52.61875 136.69867188 -53.2375 137.39734375 -53.875 138.1171875 C-55.21692382 139.91419223 -55.21692382 139.91419223 -54.72558594 141.90966797 C-53.94395526 144.16145863 -53.03727014 145.50365423 -51.515625 147.328125 C-50.99935547 147.95460938 -50.48308594 148.58109375 -49.95117188 149.2265625 C-49.38978516 149.89429688 -48.82839844 150.56203125 -48.25 151.25 C-47.0571132 152.69256078 -45.8644099 154.1352733 -44.671875 155.578125 C-43.75438477 156.68124023 -43.75438477 156.68124023 -42.81835938 157.80664062 C-40.01919423 161.18307721 -37.26046929 164.59191947 -34.5 168 C-33.42341074 169.32571061 -32.34658669 170.6512306 -31.26953125 171.9765625 C-30.46636475 172.9651123 -30.46636475 172.9651123 -29.64697266 173.97363281 C-27.9567071 176.0532658 -26.2655541 178.13217449 -24.57421875 180.2109375 C-19.4040676 186.56690313 -14.24586805 192.93075662 -9.13671875 199.3359375 C-4.68864681 204.88179684 -0.19234717 210.38877001 4.29443359 215.90332031 C7.56494626 219.92381313 10.83264299 223.94659589 14.09960938 227.9699707 C16.94127655 231.46896763 19.78649718 234.96499774 22.63671875 238.45703125 C23.23097656 239.18599609 23.82523438 239.91496094 24.4375 240.66601562 C25.57834633 242.06533495 26.72022409 243.46381418 27.86328125 244.86132812 C28.37632812 245.49103516 28.889375 246.12074219 29.41796875 246.76953125 C30.09508911 247.59868042 30.09508911 247.59868042 30.78588867 248.44458008 C34.01414524 252.5803578 34.01414524 252.5803578 33.91796875 255.43359375 C32.71661855 258.79226219 31.14674427 259.91509449 28.3125 262.0625 C27.32636719 262.83078125 26.34023438 263.5990625 25.32421875 264.390625 C24.78974121 264.80505859 24.25526367 265.21949219 23.70458984 265.64648438 C20.60110977 268.11077734 17.62017855 270.71858559 14.625 273.3125 C12.93220636 274.77621489 11.23827429 276.23778339 9.53222656 277.68603516 C8.11125996 278.90458874 6.72204432 280.15990405 5.3359375 281.41796875 C3 283 3 283 1.00390625 283.10546875 C-2.01434762 281.44042812 -3.93519935 278.95644718 -6.0625 276.3125 C-6.54291748 275.73016602 -7.02333496 275.14783203 -7.51831055 274.54785156 C-11.30711268 269.92938022 -14.99444386 265.22963918 -18.66235352 260.51489258 C-22.93866698 255.03095481 -27.36618397 249.67790744 -31.8034668 244.32397461 C-35.48283461 239.87355725 -39.08496968 235.37428835 -42.625 230.8125 C-46.29114181 226.09274559 -50.08394616 221.51437469 -54 217 C-58.39668181 211.9315638 -62.60424156 206.75536729 -66.71923828 201.45654297 C-70.93291386 196.04537522 -75.2858287 190.75563702 -79.65649414 185.47094727 C-84.28217938 179.87722778 -88.87053843 174.25449239 -93.44116211 168.61572266 C-95.81954661 165.68210043 -98.20014304 162.75075105 -100.6015625 159.8359375 C-102.09116316 158.02749255 -103.57487959 156.2141734 -105.05078125 154.39453125 C-106.32070544 152.8344841 -107.60906932 151.28921239 -108.91796875 149.76171875 C-109.48128906 149.07722656 -110.04460937 148.39273438 -110.625 147.6875 C-111.11226562 147.11386719 -111.59953125 146.54023437 -112.1015625 145.94921875 C-113.49929743 142.91674166 -112.96536833 141.16187442 -112 138 C-110.37216405 135.74563317 -108.79823614 133.78624231 -106.9375 131.75 C-105.92729081 130.60252524 -104.918184 129.45407907 -103.91015625 128.3046875 C-103.16403076 127.46309082 -103.16403076 127.46309082 -102.40283203 126.60449219 C-100.48946438 124.41607377 -98.67782433 122.15493542 -96.875 119.875 C-94.21330372 116.51964954 -91.5280855 113.18693004 -88.8125 109.875 C-77.07092111 95.56235209 -77.07092111 95.56235209 -65.5625 81.0625 C-61.46045889 75.80256388 -57.25421392 70.63751142 -53 65.5 C-46.87043317 58.09750394 -40.91387074 50.57507038 -35 43 C-29.55934362 36.0991277 -23.97068931 29.3248068 -18.37084961 22.55322266 C-13.95421123 17.19708919 -9.62949221 11.77632368 -5.37573242 6.29003906 C-3.66144244 4.08363846 -1.97819596 1.97819596 0 0 Z " fill="#FDFDFD" transform="translate(279,371)"/>
<path d="M0 0 C4.08018503 1.552553 6.37753323 4.46307245 9.0625 7.75 C9.54291748 8.32782227 10.02333496 8.90564453 10.51831055 9.50097656 C14.31681111 14.09658625 18.00189249 18.77951743 21.66235352 23.48535156 C25.35961678 28.22606613 29.16434716 32.87081757 33 37.5 C37.23650333 42.61469815 41.4208148 47.75890177 45.5 53 C50.23133321 59.07797735 55.10880475 65.02722281 60.01733398 70.96264648 C63.68384643 75.39712075 67.31102259 79.85818335 70.890625 84.36328125 C73.67525572 87.84406965 76.49564144 91.29527766 79.3125 94.75 C83.45487551 99.83084522 87.54016797 104.94872026 91.5625 110.125 C95.30321733 114.93654379 99.18904805 119.58840065 103.1875 124.1875 C114.4370473 137.1995489 114.4370473 137.1995489 117 142 C116.36792344 146.55688408 113.39853571 149.31631776 110.4375 152.625 C109.32819364 153.89084724 108.2201217 155.15777729 107.11328125 156.42578125 C106.30431396 157.34931396 106.30431396 157.34931396 105.47900391 158.29150391 C103.6358656 160.42063594 101.87062206 162.60289997 100.125 164.8125 C96.47888577 169.42735169 92.74539468 173.96573924 89 178.5 C84.56867911 183.86760576 80.16858873 189.25531881 75.8359375 194.703125 C73.09771993 198.12880997 70.31246863 201.5154492 67.53125 204.90625 C64.61472856 208.47088731 61.71362976 212.04783671 58.8125 215.625 C54.13014546 221.39662827 49.41826302 227.1429971 44.6875 232.875 C39.73746327 238.8744526 34.83284326 244.90548526 30 251 C24.38905336 258.07575129 18.67456066 265.06179886 12.92333984 272.02368164 C9.92013994 275.66025783 6.93224516 279.30566142 4 283 C-0.14317714 282.48029834 -2.12808464 281.37156909 -5.125 278.5 C-8.49303455 275.3669446 -11.91929568 272.38863542 -15.5 269.5 C-16.41265625 268.75234375 -17.3253125 268.0046875 -18.265625 267.234375 C-20.07837689 265.75309774 -21.90126745 264.28413614 -23.734375 262.828125 C-24.56453125 262.14234375 -25.3946875 261.4565625 -26.25 260.75 C-27.37148438 259.84507812 -27.37148438 259.84507812 -28.515625 258.921875 C-30 257 -30 257 -30.02734375 254.65625 C-28.68912319 251.19621205 -26.64775917 248.58014852 -24.3125 245.75 C-23.82700684 245.14720215 -23.34151367 244.5444043 -22.84130859 243.92333984 C-21.23814746 241.93999039 -19.62066394 239.9690664 -18 238 C-17.44521973 237.32291992 -16.89043945 236.64583984 -16.31884766 235.94824219 C-13.40443996 232.39221424 -10.48083496 228.84392553 -7.55078125 225.30078125 C-0.04937696 216.2248816 7.38666988 207.09987815 14.625 197.8125 C18.65992254 192.63635027 22.83021066 187.59742283 27.09082031 182.60595703 C30.3956203 178.73067155 33.60344661 174.7927048 36.765625 170.80078125 C38.55499431 168.55781307 40.35776051 166.32834523 42.171875 164.10546875 C42.7405127 163.40848877 43.30915039 162.71150879 43.89501953 161.9934082 C45.01458457 160.62247032 46.13527894 159.25245359 47.25732422 157.88354492 C48.85000852 155.93159202 50.42492853 153.96617711 52 152 C52.58362305 151.29649414 53.16724609 150.59298828 53.76855469 149.86816406 C54.32704102 149.17174805 54.88552734 148.47533203 55.4609375 147.7578125 C55.97188965 147.13277832 56.4828418 146.50774414 57.00927734 145.86376953 C58.1880752 144.05314846 58.1880752 144.05314846 57.82763672 141.98681641 C56.90779201 139.77864643 55.84121278 138.27897748 54.296875 136.453125 C53.45443237 135.44536011 53.45443237 135.44536011 52.5949707 134.41723633 C51.98613037 133.70204834 51.37729004 132.98686035 50.75 132.25 C49.4669403 130.71787287 48.18440006 129.18531059 46.90234375 127.65234375 C46.24991699 126.87616699 45.59749023 126.09999023 44.92529297 125.30029297 C42.02152181 121.83093818 39.16328421 118.32543521 36.3125 114.8125 C35.77520264 114.15145264 35.23790527 113.49040527 34.68432617 112.80932617 C30.81299991 108.03416086 27.01405318 103.20587492 23.23364258 98.35864258 C19.56545743 93.67507945 15.79401486 89.08195521 12 84.5 C5.87188414 77.09643889 -0.09659941 69.58321224 -6 62 C-7.78909147 59.70630984 -9.58134177 57.41512009 -11.375 55.125 C-11.81658447 54.55894043 -12.25816895 53.99288086 -12.71313477 53.40966797 C-15.27411387 50.14191177 -17.88392902 46.92364047 -20.546875 43.73828125 C-21.14193848 43.0220459 -21.73700195 42.30581055 -22.35009766 41.56787109 C-23.50851973 40.17744593 -24.67455456 38.79331809 -25.84912109 37.41650391 C-27.99216113 34.8381691 -29.78304317 32.44402034 -31.2578125 29.42578125 C-30.82328722 25.3372934 -27.70805078 23.28633274 -24.75 20.75 C-23.79287109 19.89728516 -23.79287109 19.89728516 -22.81640625 19.02734375 C-17.34468136 14.18907204 -11.70936726 9.55423823 -6 5 C-3.99184823 3.34278737 -1.995762 1.67212492 0 0 Z " fill="#FDFDFD" transform="translate(741,370)"/>
<path d="M0 0 C0.76165466 -0.00058411 1.52330933 -0.00116821 2.30804443 -0.00177002 C4.80821414 0.00100133 7.30716929 0.0320465 9.80712891 0.06347656 C11.54732614 0.07094237 13.28753181 0.0766337 15.02774048 0.08062744 C19.59490408 0.09585709 24.16155411 0.13511556 28.72851562 0.17944336 C33.39397231 0.2204539 38.05951245 0.23865078 42.72509766 0.25878906 C51.86985382 0.30161267 61.01422981 0.36983138 70.15869141 0.45410156 C70.15869141 1.11410156 70.15869141 1.77410156 70.15869141 2.45410156 C71.14869141 2.78410156 72.13869141 3.11410156 73.15869141 3.45410156 C74.54541016 5.52050781 74.54541016 5.52050781 75.84619141 8.01660156 C76.28318359 8.84289062 76.72017578 9.66917969 77.17041016 10.52050781 C77.49654297 11.15859375 77.82267578 11.79667969 78.15869141 12.45410156 C77.49869141 12.78410156 76.83869141 13.11410156 76.15869141 13.45410156 C74.50869141 10.48410156 72.85869141 7.51410156 71.15869141 4.45410156 C44.42869141 4.45410156 17.69869141 4.45410156 -9.84130859 4.45410156 C-10.17130859 144.37410156 -10.50130859 284.29410156 -10.84130859 428.45410156 C-11.83130859 428.78410156 -12.82130859 429.11410156 -13.84130859 429.45410156 C-13.97853644 375.37974112 -14.084313 321.30539822 -14.14770057 267.23089801 C-14.15520513 260.85201115 -14.16297103 254.47312463 -14.17089844 248.09423828 C-14.1724723 246.82427624 -14.17404616 245.55431421 -14.17566772 244.24586847 C-14.20180063 223.66233054 -14.24912187 203.07889278 -14.30422537 182.49541435 C-14.36026495 161.38676964 -14.39364656 140.27817753 -14.40583956 119.16946149 C-14.41408674 106.1362526 -14.44016716 93.10332683 -14.4888074 80.07020506 C-14.52043734 71.14208694 -14.53012868 62.21411593 -14.52231686 53.2859458 C-14.5184604 48.12892728 -14.52451676 42.97240468 -14.55654144 37.81547356 C-14.58561886 33.09888819 -14.58729402 28.38313486 -14.56670196 23.66651216 C-14.56415491 21.95580307 -14.57186968 20.24504324 -14.59060769 18.53443488 C-14.61453224 16.21648404 -14.60181593 13.90157491 -14.57959557 11.58367538 C-14.58187389 10.29414514 -14.58415221 9.0046149 -14.58649957 7.67600799 C-13.84130859 4.45410156 -13.84130859 4.45410156 -11.02533495 2.03856683 C-7.24261148 0.15617225 -4.12964191 -0.08390786 0 0 Z " fill="#262627" transform="translate(354.84130859375,294.5458984375)"/>
<path d="M0 0 C0.33 0 0.66 0 1 0 C1.04574118 58.40579584 1.0810048 116.81159063 1.10213066 175.21740074 C1.1046254 182.10701068 1.1072185 188.99662059 1.10986328 195.88623047 C1.1101248 196.57184023 1.11038632 197.25744999 1.11065576 197.9638358 C1.11918294 220.19821265 1.13420889 242.43257934 1.15259444 264.66695004 C1.1719832 288.15714007 1.18398926 311.64732105 1.18817699 335.1375196 C1.19092623 349.21473959 1.19962085 363.29193046 1.21583293 377.36914149 C1.22637502 387.01207381 1.22960695 396.65499099 1.22700275 406.29792866 C1.22571712 411.86792711 1.22773836 417.43787454 1.23841095 423.007864 C1.24810032 428.10169799 1.24866314 433.19544637 1.24179779 438.2892842 C1.24094852 440.13725872 1.24352202 441.98523846 1.24976636 443.83320263 C1.25773332 446.33538657 1.25350254 448.83725697 1.24609566 451.33943558 C1.25134968 452.06532208 1.25660371 452.79120858 1.26201695 453.53909165 C1.23739936 457.1919651 1.01037327 459.89401753 -1 463 C-1.83629782 441.01581667 -2.14803703 419.06695406 -2.13072467 397.06828177 C-2.12841314 392.6988553 -2.13197845 388.32943241 -2.13470459 383.96000671 C-2.13910437 375.44015806 -2.13821099 366.92031832 -2.13529195 358.40046934 C-2.13301054 351.44571202 -2.13273709 344.49095716 -2.13381577 337.53619957 C-2.133969 336.53681441 -2.13412223 335.53742925 -2.13428011 334.50775969 C-2.13459993 332.47558239 -2.13492415 330.44340508 -2.1352527 328.41122779 C-2.13809169 309.43366353 -2.13484765 290.45610414 -2.12945233 271.47854068 C-2.12500577 255.34254355 -2.1257455 239.20655364 -2.13037109 223.07055664 C-2.13577991 204.19439488 -2.13779639 185.31823738 -2.13475883 166.44207495 C-2.1344404 164.40953585 -2.13412603 162.37699674 -2.13381577 160.34445763 C-2.13366149 159.34528809 -2.13350721 158.34611856 -2.13334826 157.31667117 C-2.13250029 150.41896125 -2.13392877 143.52125417 -2.13629532 136.62354469 C-2.14744713 100.84785556 -2.1496134 65.07440288 -1.58563146 29.3023126 C-1.55449392 27.31059836 -1.52492691 25.31885977 -1.49537492 23.32712138 C-1.44015496 19.73098202 -1.37767329 16.13506526 -1.31173706 12.53910828 C-1.29544148 11.48645779 -1.2791459 10.43380729 -1.26235652 9.3492583 C-1.2428397 8.39993273 -1.22332288 7.45060716 -1.20321465 6.47251415 C-1.18807095 5.65067581 -1.17292726 4.82883747 -1.15732467 3.98209494 C-1 2 -1 2 0 0 Z " fill="#050405" transform="translate(135,386)"/>
<path d="M0 0 C0.33 0 0.66 0 1 0 C1.72964393 10.18116672 2.14531065 20.29267585 2.12698364 30.50497437 C2.12813993 31.88618658 2.12973082 33.26739848 2.13171089 34.64860976 C2.13583511 38.39320156 2.13384519 42.13776745 2.13072467 45.88235927 C2.12844204 49.941238 2.13196445 54.00011259 2.13470459 58.05899048 C2.13913207 65.99310108 2.13819896 73.92720218 2.13529195 81.86131315 C2.13302441 88.32047242 2.13273123 94.77962905 2.13381577 101.2387886 C2.133969 102.16163535 2.13412223 103.08448209 2.13428011 104.03529388 C2.13459987 105.91075233 2.13492409 107.78621077 2.1352527 109.66166921 C2.13809906 127.21791502 2.13483455 144.77415559 2.12945233 162.33040054 C2.12499251 177.34120065 2.12575508 192.35199301 2.13037109 207.36279297 C2.13574467 224.84498046 2.13781665 242.32716336 2.13475883 259.80935156 C2.13444033 261.68058562 2.13412596 263.55181968 2.13381577 265.42305374 C2.13366149 266.34341647 2.13350721 267.2637792 2.13334826 268.21203171 C2.13249087 274.64609982 2.13392925 281.08016498 2.13629532 287.51423264 C2.13912488 295.38090051 2.13828974 303.24755843 2.13301457 311.11422519 C2.13041845 315.11543944 2.12930133 319.1166372 2.13266373 323.11785126 C2.14683148 341.43196198 1.88544341 359.70335201 1 378 C-1.87983746 375.5550887 -1.98574711 375.16250046 -2.34348965 371.0837965 C-2.34424827 369.38434818 -2.32812908 367.68484751 -2.29942322 365.98564148 C-2.29569187 365.04373589 -2.29196052 364.10183029 -2.2881161 363.13138211 C-2.27224777 359.93068599 -2.23519568 356.73055516 -2.19897461 353.5300293 C-2.18403399 351.20818105 -2.17070179 348.88632198 -2.15883541 346.56445599 C-2.13480017 342.12696806 -2.10635007 337.68956544 -2.07157089 333.25214842 C-2.00056492 324.12511 -1.97170239 314.99828792 -1.95632935 305.8710022 C-1.9537169 304.38206643 -1.95110441 302.89313066 -1.94849187 301.40419489 C-1.94453613 299.12379974 -1.94062172 296.84340454 -1.93682458 294.56300912 C-1.92176183 285.72206899 -1.89760616 276.88115583 -1.8731842 268.04023743 C-1.86858848 266.36022948 -1.86399406 264.68022152 -1.85940093 263.00021356 C-1.84523765 257.83998565 -1.83083944 252.67975841 -1.81640625 247.51953125 C-1.81149496 245.75904139 -1.80658378 243.99855153 -1.8016727 242.23806167 C-1.75566811 225.76877831 -1.70893985 209.29949708 -1.66066074 192.83022022 C-1.64965846 189.07309281 -1.63866602 185.31596537 -1.62768555 181.55883789 C-1.62359309 180.15887354 -1.62359309 180.15887354 -1.61941796 178.73062708 C-1.57489192 163.46068073 -1.53437038 148.19072626 -1.49534739 132.92076496 C-1.45497183 117.14977938 -1.41086741 101.37880764 -1.36312145 85.60784262 C-1.33651911 76.78837427 -1.31159305 67.96890804 -1.29092598 59.1494236 C-1.273427 51.6836495 -1.25261411 44.21789433 -1.22733159 36.75214235 C-1.21454857 32.94618207 -1.20341712 29.14023503 -1.19658089 25.33425903 C-1.18915009 21.22104494 -1.17409778 17.10789532 -1.15821838 12.9947052 C-1.15675122 11.17295177 -1.15675122 11.17295177 -1.15525442 9.31439525 C-1.14977998 8.22281917 -1.14430554 7.13124308 -1.1386652 6.00658894 C-1.13600716 5.05699686 -1.13334911 4.10740479 -1.13061053 3.1290372 C-1 1 -1 1 0 0 Z " fill="#050506" transform="translate(888,350)"/>
<path d="M0 0 C26.73 0 53.46 0 81 0 C81.495 2.475 81.495 2.475 82 5 C82.66 5 83.32 5 84 5 C84 144.59 84 284.18 84 428 C83.67 428 83.34 428 83 428 C83 288.74 83 149.48 83 6 C82.34 6 81.68 6 81 6 C80.505 5.01 80.505 5.01 80 4 C69.47347182 3.95372747 58.9469677 3.91815673 48.42035866 3.89637566 C43.53280682 3.8859236 38.64532439 3.87173856 33.7578125 3.84912109 C29.04403371 3.82744329 24.33032182 3.8154421 19.61649704 3.81024551 C17.81509726 3.80654063 16.01370128 3.79930626 14.21232986 3.78853989 C11.69567099 3.77409213 9.17929111 3.77201922 6.66259766 3.77294922 C5.53726875 3.76216339 5.53726875 3.76216339 4.38920593 3.75115967 C0.23937855 3.63233931 0.23937855 3.63233931 -3 6 C-2.67 4.68 -2.34 3.36 -2 2 C-1.34 2 -0.68 2 0 2 C0 1.34 0 0.68 0 0 Z " fill="#2E2E2E" transform="translate(599,295)"/>
<path d="M0 0 C0.99 0 1.98 0 3 0 C4.31640625 1.3203125 4.31640625 1.3203125 5.5625 3.125 C5.97628906 3.70507812 6.39007812 4.28515625 6.81640625 4.8828125 C9.48221609 9.65135684 10.25212929 14.09094137 10.28520203 19.50498962 C10.29781067 20.79575409 10.31041931 22.08651855 10.32341003 23.41639709 C10.32736948 24.83480783 10.3311318 26.25321913 10.3347168 27.67163086 C10.34566089 29.17525851 10.35745261 30.6788802 10.37002563 32.18249512 C10.40157017 36.25944372 10.42085943 40.33636675 10.43764853 44.41339946 C10.45706257 48.69454983 10.48677563 52.97563009 10.51509094 57.25672913 C10.56114484 64.45506241 10.5995307 71.6534047 10.63305664 78.85180664 C10.67172419 87.14050397 10.72099439 95.42908336 10.77638692 103.71768469 C10.82972754 111.71918301 10.87677118 119.72070552 10.92057228 127.72226143 C10.93915641 131.11221196 10.95963946 134.50214282 10.98166466 137.89207268 C11.00733302 141.90167464 11.0273551 145.91126927 11.043293 149.92092133 C11.04991343 151.38045004 11.0583044 152.83997216 11.06874657 154.29947853 C11.12037981 161.68663671 11.03505102 169.05164799 10.62165833 176.42726135 C10.5525314 177.66495049 10.48340448 178.90263964 10.41218281 180.17783451 C10.27616248 181.10914912 10.14014215 182.04046373 10 183 C9.34 183.33 8.68 183.66 8 184 C7.99761165 183.1190888 7.99522329 182.2381776 7.99276257 181.33057213 C7.93363141 159.89791212 7.85809337 138.46536473 7.76428509 117.03282738 C7.71931594 106.66821687 7.67990383 96.30364082 7.65356445 85.93896484 C7.63059347 76.90531122 7.59720546 67.87176652 7.55129844 58.83819926 C7.52735413 54.0548094 7.50863325 49.2715275 7.50238609 44.48807907 C7.49634073 39.98515801 7.47636067 35.48251319 7.44572449 30.97969437 C7.43693548 29.32775032 7.43322347 27.67577019 7.43499184 26.02380371 C7.43664554 23.76598769 7.41993815 21.5090128 7.39872742 19.25131226 C7.39411845 17.98845587 7.38950949 16.72559948 7.38476086 15.42447472 C6.82664268 10.4570734 4.61378639 6.68203546 1.8125 2.625 C1.214375 1.75875 0.61625 0.8925 0 0 Z " fill="#040405" transform="translate(879,150)"/>
<path d="M0 0 C0.33 0 0.66 0 1 0 C2.20338136 12.54295625 2.1460004 25.05284084 2.1328125 37.640625 C2.13348818 39.93487559 2.1344604 42.22912611 2.13571167 44.52337646 C2.13717977 49.32092982 2.13506514 54.11846446 2.13037109 58.91601562 C2.12471327 64.98666018 2.12793333 71.05726011 2.13394356 77.12790298 C2.13760665 81.86761798 2.13638397 86.60732292 2.13381577 91.34703827 C2.13316023 93.58074703 2.13392532 95.81445677 2.13629532 98.04816437 C2.14954003 114.05368063 1.72198684 130.01077749 1 146 C-1.78904778 143.60930533 -1.98078826 143.20122325 -2.35644531 139.26660156 C-2.36273918 137.64126081 -2.35176291 136.01580604 -2.328125 134.390625 C-2.3266597 133.47637756 -2.3251944 132.56213013 -2.32368469 131.62017822 C-2.31420668 128.49652029 -2.28227119 125.37350029 -2.25 122.25 C-2.23722805 120.02018765 -2.22546069 117.79036936 -2.21459961 115.56054688 C-2.18065007 109.70533822 -2.12868105 103.85041662 -2.069417 97.99542236 C-2.00910056 92.02238174 -1.95612185 86.04929591 -1.90478516 80.07617188 C-1.81055814 69.21097252 -1.70493355 58.34591076 -1.59294128 47.48088074 C-1.56245343 44.49543971 -1.53307025 41.50998917 -1.50378418 38.52453613 C-1.45655821 33.77417523 -1.40395571 29.02390112 -1.34731102 24.27364349 C-1.32685187 22.49953752 -1.30801068 20.72541208 -1.29085732 18.95127106 C-1.26684871 16.50584834 -1.23686604 14.06056988 -1.20532227 11.61523438 C-1.19956806 10.89769108 -1.19381386 10.18014778 -1.18788528 9.44086075 C-1.13934301 6.15708246 -1.00442517 3.14223026 0 0 Z " fill="#080809" transform="translate(888,582)"/>
<path d="M0 0 C2.56435439 2.56435439 4.01529448 4.46554044 5.75 7.5625 C6.19859375 8.34753906 6.6471875 9.13257813 7.109375 9.94140625 C7.40328125 10.62074219 7.6971875 11.30007813 8 12 C7.67 12.66 7.34 13.32 7 14 C5.68 13.34 4.36 12.68 3 12 C2.67 118.26 2.34 224.52 2 334 C1.67 334 1.34 334 1 334 C0.67 223.78 0.34 113.56 0 0 Z " fill="#000000" transform="translate(408,389)"/>
<path d="M0 0 C0.33 0 0.66 0 1 0 C1 55.11 1 110.22 1 167 C-3.91044161 162.08955839 -2.05671918 150.20027744 -2.09765625 143.56738281 C-2.09260904 141.62103754 -2.08744054 139.67468378 -2.07516479 137.72837067 C-2.06212516 135.64318329 -2.05581943 133.55806113 -2.05102539 131.47283936 C-2.03975806 127.06519607 -2.02044122 122.65760897 -2 118.25 C-1.97633934 113.09475878 -1.95604109 107.93954625 -1.94406128 102.78426361 C-1.93758863 100.73123619 -1.92509726 98.67830186 -1.91235352 96.62530518 C-1.90905029 95.3893158 -1.90574707 94.15332642 -1.90234375 92.87988281 C-1.89710693 91.78959778 -1.89187012 90.69931274 -1.88647461 89.57598877 C-1.82421899 87.01206185 -1.82421899 87.01206185 -3 85 C-2.34 85 -1.68 85 -1 85 C-1.16226074 83.85716553 -1.32452148 82.71433105 -1.49169922 81.53686523 C-2.03785958 77.14536262 -2.14446367 72.83104959 -2.1328125 68.41015625 C-2.13417709 67.59994522 -2.13554169 66.78973419 -2.13694763 65.95497131 C-2.13896592 63.32410546 -2.13266569 60.69335431 -2.125 58.0625 C-2.12378143 57.16392273 -2.12256287 56.26534546 -2.12130737 55.33953857 C-2.10110136 42.59675105 -1.93626289 29.86236988 -1.5625 17.125 C-1.5429425 16.42045685 -1.52338501 15.7159137 -1.50323486 14.99002075 C-1.17455853 3.52367559 -1.17455853 3.52367559 0 0 Z " fill="#050505" transform="translate(135,164)"/>
<path d="M0 0 C26.73 0 53.46 0 81 0 C81.99 2.97 81.99 2.97 83 6 C82.34 6 81.68 6 81 6 C80.505 5.01 80.505 5.01 80 4 C69.47347182 3.95372747 58.9469677 3.91815673 48.42035866 3.89637566 C43.53280682 3.8859236 38.64532439 3.87173856 33.7578125 3.84912109 C29.04403371 3.82744329 24.33032182 3.8154421 19.61649704 3.81024551 C17.81509726 3.80654063 16.01370128 3.79930626 14.21232986 3.78853989 C11.69567099 3.77409213 9.17929111 3.77201922 6.66259766 3.77294922 C5.53726875 3.76216339 5.53726875 3.76216339 4.38920593 3.75115967 C0.23937855 3.63233931 0.23937855 3.63233931 -3 6 C-2.67 4.68 -2.34 3.36 -2 2 C-1.34 2 -0.68 2 0 2 C0 1.34 0 0.68 0 0 Z " fill="#282828" transform="translate(599,295)"/>
<path d="M0 0 C0.99 0.495 0.99 0.495 2 1 C4.4100887 29.18943038 2.96380433 57.76514704 2 86 C1.01 86.495 1.01 86.495 0 87 C0 58.29 0 29.58 0 0 Z " fill="#181819" transform="translate(887,763)"/>
<path d="M0 0 C2 2 2 2 2.24291992 4.75195312 C2.23675659 6.49895508 2.23675659 6.49895508 2.23046875 8.28125 C2.22917969 9.58707031 2.22789062 10.89289062 2.2265625 12.23828125 C2.214058 13.65885881 2.20102615 15.0794318 2.1875 16.5 C2.18063772 17.94140462 2.17413 19.38281097 2.16796875 20.82421875 C2.08874148 33.89398645 1.63778605 46.94574085 1 60 C-1.14361642 58.28887167 -1.93506371 57.42027182 -2.36076355 54.66511536 C-2.35410172 53.74800278 -2.34743988 52.8308902 -2.34057617 51.88598633 C-2.34034958 50.84513382 -2.34012299 49.80428131 -2.33988953 48.73188782 C-2.32440567 47.60993515 -2.30892181 46.48798248 -2.29296875 45.33203125 C-2.28872391 44.18208176 -2.28447906 43.03213226 -2.28010559 41.84733582 C-2.26329189 38.16882059 -2.22563377 34.49085008 -2.1875 30.8125 C-2.17245669 28.32097144 -2.15876767 25.82943432 -2.14648438 23.33789062 C-2.11337953 17.22507407 -2.06315305 11.11257595 -2 5 C-1.67 5 -1.34 5 -1 5 C-0.67 3.35 -0.34 1.7 0 0 Z " fill="#161717" transform="translate(888,668)"/>
<path d="M0 0 C4.21026821 3.2078234 7.23959124 6.44400796 10.328125 10.7265625 C13.27260702 14.73050768 16.4869171 18.5177903 19.64599609 22.35302734 C22.23186842 25.49841045 24.80459775 28.65446947 27.375 31.8125 C27.92986084 32.49417236 28.48472168 33.17584473 29.05639648 33.87817383 C33.08378939 38.8396078 37.04614325 43.84803471 40.9519043 48.90576172 C43.25494701 51.86590761 45.61801782 54.7286703 48.12890625 57.515625 C48.64050293 58.09030518 49.15209961 58.66498535 49.67919922 59.25708008 C50.65422918 60.34337519 51.64338688 61.4172246 52.64892578 62.4753418 C55.10976129 65.2281026 55.99243329 66.95009193 56.55078125 70.6328125 C55.90663587 74.57077928 55.1161672 75.55168448 52 77.9375 C51.2575 78.52402344 50.515 79.11054687 49.75 79.71484375 C48.88375 80.35099609 48.88375 80.35099609 48 81 C47.01 80.01 47.01 80.01 46 79 C48.64 77.02 51.28 75.04 54 73 C53.53139951 68.22557987 51.26945476 65.33381267 48.3125 61.75 C47.82845703 61.14865234 47.34441406 60.54730469 46.84570312 59.92773438 C45.24163832 57.94242534 43.62289016 55.96994406 42 54 C41.43458496 53.31228516 40.86916992 52.62457031 40.28662109 51.91601562 C37.92926973 49.05101844 35.56965991 46.18794233 33.20336914 43.33032227 C29.02158823 38.27287173 24.94263924 33.14560689 20.91113281 27.96801758 C17.9269806 24.14713032 14.86834644 20.39950653 11.75 16.6875 C8.75385598 13.1122291 5.77630924 9.5278532 2.875 5.875 C2.31554687 5.17117188 1.75609375 4.46734375 1.1796875 3.7421875 C0 2 0 2 0 0 Z " fill="#0C0C0C" transform="translate(258,555)"/>
<path d="M0 0 C3.68690392 1.49446885 5.4957133 3.52238427 7.9375 6.625 C8.72382812 7.61242187 9.51015625 8.59984375 10.3203125 9.6171875 C10.74860352 10.15956055 11.17689453 10.70193359 11.61816406 11.26074219 C13.61109863 13.76916371 15.63901911 16.24854782 17.66479492 18.73046875 C26.90560633 30.05658995 36.03312108 41.47070702 45.04272461 52.98144531 C49.28285314 58.3863077 53.62343831 63.70490067 58 69 C57.67 69.66 57.34 70.32 57 71 C52.25528392 65.77576474 47.69728326 60.45354942 43.3203125 54.91796875 C40.47286485 51.33708761 37.57961541 47.79482054 34.6875 44.25 C30.1447663 38.67530123 25.67030866 33.05428183 21.25268555 27.38012695 C16.84618243 21.74759187 12.27972585 16.2487593 7.68188477 10.77172852 C4.80399365 7.31637257 2.1646066 3.96586852 0 0 Z " fill="#0C0C0C" transform="translate(749,377)"/>
<path d="M0 0 C4.12237419 1.54947707 6.39299772 4.53712159 9.0625 7.875 C9.7131543 8.66970703 9.7131543 8.66970703 10.37695312 9.48046875 C11.59688989 10.97707306 12.79896753 12.48818283 14 14 C14.59683594 14.74507813 15.19367187 15.49015625 15.80859375 16.2578125 C17 18 17 18 17 20 C17.66 20 18.32 20 19 20 C20.234375 21.37109375 20.234375 21.37109375 21.75 23.4375 C25.27531246 28.10615704 28.95564905 32.62165333 32.6875 37.125 C35.12669505 40.08193789 37.56322932 43.04106417 40 46 C40.88800293 47.07580322 40.88800293 47.07580322 41.79394531 48.17333984 C43.47400851 50.21395382 45.14448912 52.26202987 46.8125 54.3125 C47.32192139 54.92818848 47.83134277 55.54387695 48.35620117 56.17822266 C52.55359362 61.368227 52.55359362 61.368227 53 65 C51.0625 67.25 51.0625 67.25 49 69 C49.37898437 67.70255859 49.37898437 67.70255859 49.765625 66.37890625 C50.0694082 61.99936518 48.45609232 60.11201129 45.75 56.9375 C45.29834473 56.38022217 44.84668945 55.82294434 44.38134766 55.2487793 C42.94007294 53.48223925 41.47370829 51.73953849 40 50 C39.05464894 48.87242816 38.10933585 47.74482448 37.1640625 46.6171875 C35.31121196 44.41656319 33.44763669 42.2255411 31.578125 40.0390625 C28.72475633 36.67554609 25.966503 33.24890193 23.2265625 29.79296875 C20.34238881 26.17510175 17.42089881 22.58823583 14.5 19 C12.84157685 16.95978331 11.18360733 14.91919917 9.52587891 12.87841797 C8.56234773 11.69227255 7.59852013 10.5063678 6.63427734 9.32080078 C5.48280574 7.90343163 4.33498497 6.48309862 3.1875 5.0625 C2.56230469 4.29035156 1.93710937 3.51820313 1.29296875 2.72265625 C0 1 0 1 0 0 Z " fill="#0D0C0D" transform="translate(807,449)"/>
<path d="M0 0 C0.66 0 1.32 0 2 0 C2.05069411 6.76266277 2.08573108 13.52527655 2.10986328 20.28808594 C2.1199232 22.58888582 2.13357262 24.8896729 2.15087891 27.19042969 C2.17512735 30.4967769 2.18648323 33.80295512 2.1953125 37.109375 C2.20563507 38.13867126 2.21595764 39.16796753 2.22659302 40.22845459 C2.22674408 41.18914856 2.22689514 42.14984253 2.22705078 43.13964844 C2.231492 43.98348083 2.23593323 44.82731323 2.24050903 45.69671631 C1.97855059 48.20541467 1.25924304 49.83328958 0 52 C-1.07634117 46.75083269 -1.14514263 41.69815927 -1.1328125 36.3671875 C-1.13376923 35.45292999 -1.13472595 34.53867249 -1.13571167 33.59671021 C-1.13638976 31.6720574 -1.13456142 29.74740227 -1.13037109 27.82275391 C-1.12500524 24.87787759 -1.130335 21.93315293 -1.13671875 18.98828125 C-1.13605814 17.114583 -1.13477735 15.24088484 -1.1328125 13.3671875 C-1.13483673 12.48795624 -1.13686096 11.60872498 -1.13894653 10.70285034 C-1.13579437 9.88164703 -1.13264221 9.06044373 -1.12939453 8.21435547 C-1.12859894 7.49520966 -1.12780334 6.77606384 -1.12698364 6.03512573 C-0.99484806 3.91743156 -0.57722649 2.03778604 0 0 Z " fill="#050505" transform="translate(134,333)"/>
<path d="M0 0 C0 3.96046739 -1.39476899 4.96576692 -3.9375 7.9375 C-7.69906652 11.94901767 -7.69906652 11.94901767 -9 17 C-7.17704596 19.80874832 -7.17704596 19.80874832 -4.5625 22.625 C-3.63730928 23.68948614 -2.71284098 24.75460056 -1.7890625 25.8203125 C-1.32145508 26.35172852 -0.85384766 26.88314453 -0.37207031 27.43066406 C1.65437919 29.74846075 3.61610231 32.1147781 5.5625 34.5 C6.20316406 35.2734375 6.84382813 36.046875 7.50390625 36.84375 C8.97243455 38.96027121 9.58212624 40.48130884 10 43 C5.58045421 38.77370431 1.73671291 34.17317952 -2.125 29.4375 C-3.05505859 28.30538086 -3.05505859 28.30538086 -4.00390625 27.15039062 C-5.67822967 25.10699591 -7.35091894 23.06382469 -9 21 C-9.56130615 20.2980249 -10.1226123 19.5960498 -10.70092773 18.87280273 C-12 17 -12 17 -11.96484375 15.1015625 C-10.59637913 12.12085819 -8.67234593 9.87980909 -6.5625 7.375 C-5.75941406 6.41335938 -4.95632812 5.45171875 -4.12890625 4.4609375 C-2.80330334 2.92858918 -1.43270975 1.43270975 0 0 Z " fill="#0B0B0B" transform="translate(235,497)"/>
<path d="M0 0 C0.66 0 1.32 0 2 0 C2.98035441 4.79944549 3.05812873 9.3722363 2.87890625 14.2421875 C2.85529526 15.01055939 2.83168427 15.77893127 2.80735779 16.57058716 C2.73127024 19.00560561 2.6470128 21.44026088 2.5625 23.875 C2.5092242 25.53383687 2.45648425 27.19269103 2.40429688 28.8515625 C2.27573028 32.90126817 2.13983987 36.95066857 2 41 C1.01 41.495 1.01 41.495 0 42 C0 28.14 0 14.28 0 0 Z " fill="#050506" transform="translate(887,808)"/>
<path d="M0 0 C0.33 0 0.66 0 1 0 C1.33 11.88 1.66 23.76 2 36 C2.495 31.545 2.495 31.545 3 27 C3.33 27 3.66 27 4 27 C4.20483028 34.99976044 4.13480153 42.26134446 2 50 C1.01 49.67 0.02 49.34 -1 49 C-0.67 48.01 -0.34 47.02 0 46 C0.08669529 44.48092376 0.117694 42.95830999 0.11352539 41.43676758 C0.11341209 40.05567558 0.11341209 40.05567558 0.11329651 38.64668274 C0.10555458 37.16061775 0.10555458 37.16061775 0.09765625 35.64453125 C0.0962413 34.62775803 0.09482635 33.6109848 0.09336853 32.56340027 C0.08776707 29.31307036 0.07521432 26.06280912 0.0625 22.8125 C0.05748519 20.61002704 0.05292225 18.40755299 0.04882812 16.20507812 C0.03779717 10.80336196 0.02105762 5.40168588 0 0 Z " fill="#262727" transform="translate(886,813)"/>
<path d="M0 0 C0.33 0.66 0.66 1.32 1 2 C0.02783203 4.21484375 0.02783203 4.21484375 -1.4921875 6.9375 C-2.03230469 7.91460937 -2.57242188 8.89171875 -3.12890625 9.8984375 C-3.99322266 11.43371094 -3.99322266 11.43371094 -4.875 13 C-5.99740085 15.02083055 -7.11979692 17.04166375 -8.2421875 19.0625 C-8.7460498 19.96097656 -9.24991211 20.85945313 -9.76904297 21.78515625 C-10.54126562 23.17460565 -11.28909952 24.57819904 -12 26 C-15.93345152 24.68884949 -16.32374076 23.15787222 -18.25 19.5625 C-18.79140625 18.57378906 -19.3328125 17.58507812 -19.890625 16.56640625 C-20.25671875 15.71949219 -20.6228125 14.87257813 -21 14 C-20.67 13.34 -20.34 12.68 -20 12 C-16 17.75 -16 17.75 -16 20 C-14.35 20 -12.7 20 -11 20 C-10.731875 19.278125 -10.46375 18.55625 -10.1875 17.8125 C-9 15 -9 15 -7.4375 12.5625 C-5.82141162 9.68164679 -5.37908032 7.26009076 -5 4 C-4.01 3.67 -3.02 3.34 -2 3 C-1.34 2.01 -0.68 1.02 0 0 Z " fill="#0E0E0E" transform="translate(526,420)"/>
<path d="M0 0 C0.33 0 0.66 0 1 0 C1.36351562 1.35544922 1.36351562 1.35544922 1.734375 2.73828125 C3.12095437 6.31171883 4.36769319 7.7203599 7.25 10.1875 C8.13558594 10.94933594 9.02117188 11.71117187 9.93359375 12.49609375 C13.93533052 15.76375397 17.98235919 18.97100986 22.08886719 22.10620117 C25.66932186 24.85792254 28.8738553 27.73895599 32 31 C31.67 31.66 31.34 32.32 31 33 C30.36835937 32.40574219 29.73671875 31.81148437 29.0859375 31.19921875 C23.22636701 25.7702507 17.21815994 20.6841749 10.86083984 15.84448242 C7.30423416 13.11638675 4.11468387 10.2412523 1 7 C0.34 6.34 -0.32 5.68 -1 5 C-0.625 2.375 -0.625 2.375 0 0 Z " fill="#0D0D0D" transform="translate(710,622)"/>
<path d="M0 0 C5.30101923 4.00808771 9.06969212 8.66268841 13 14 C16.0750708 13.41246271 17.87901137 12.54526011 20.234375 10.49609375 C20.80800781 10.00302734 21.38164062 9.50996094 21.97265625 9.00195312 C22.55917969 8.48568359 23.14570313 7.96941406 23.75 7.4375 C24.35199219 6.91736328 24.95398438 6.39722656 25.57421875 5.86132812 C27.05488159 4.58043726 28.52817542 3.29103688 30 2 C30.66 2.33 31.32 2.66 32 3 C29.99553147 4.99844006 27.97411043 6.97227132 25.9375 8.9375 C25.09541992 9.78344727 25.09541992 9.78344727 24.23632812 10.64648438 C20.34998396 14.35516709 17.60459931 16.00670407 12 16 C6.93811427 12.82391484 4.68023609 9.26474946 2 4 C1.5875 3.195625 1.175 2.39125 0.75 1.5625 C0.5025 1.046875 0.255 0.53125 0 0 Z " fill="#080808" transform="translate(266,639)"/>
<path d="M0 0 C2.56435439 2.56435439 4.01529448 4.46554044 5.75 7.5625 C6.19859375 8.34753906 6.6471875 9.13257813 7.109375 9.94140625 C7.40328125 10.62074219 7.6971875 11.30007813 8 12 C7.67 12.66 7.34 13.32 7 14 C5.68 13.34 4.36 12.68 3 12 C2.67 22.23 2.34 32.46 2 43 C1.67 43 1.34 43 1 43 C0.67 28.81 0.34 14.62 0 0 Z " fill="#000000" transform="translate(408,389)"/>
<path d="M0 0 C4.11428941 3.01369852 7.1363744 6.46104406 10.1875 10.5 C11.14430303 11.74336661 12.10267155 12.9855299 13.0625 14.2265625 C13.54589844 14.85208008 14.02929688 15.47759766 14.52734375 16.12207031 C18.23125654 20.84529597 22.12824159 25.41435988 26 30 C25.34 30.66 24.68 31.32 24 32 C23.00033203 30.71029297 23.00033203 30.71029297 21.98046875 29.39453125 C21.05014316 28.2000034 20.11909748 27.00603618 19.1875 25.8125 C18.69773682 25.18480713 18.20797363 24.55711426 17.70336914 23.91040039 C13.790549 18.92971031 9.73615731 14.08859881 5.5300293 9.3527832 C2.95382933 6.3892207 1.21571682 3.74330886 0 0 Z " fill="#0B0B0B" transform="translate(206,565)"/>
<path d="M0 0 C2.48471902 3.78623851 2.29746462 7.63325454 2.25 12 C2.25773438 12.7115625 2.26546875 13.423125 2.2734375 14.15625 C2.25937762 17.92429832 2.09678961 20.80489203 0 24 C-0.33 24 -0.66 24 -1 24 C-1.02887236 20.18751574 -1.04675492 16.3750593 -1.0625 12.5625 C-1.07087891 11.47388672 -1.07925781 10.38527344 -1.08789062 9.26367188 C-1.09111328 8.22919922 -1.09433594 7.19472656 -1.09765625 6.12890625 C-1.10289307 5.17056885 -1.10812988 4.21223145 -1.11352539 3.22485352 C-1 1 -1 1 0 0 Z " fill="#0F0F10" transform="translate(888,738)"/>
<path d="M0 0 C0.66 0.33 1.32 0.66 2 1 C1.2265625 1.89460937 0.453125 2.78921875 -0.34375 3.7109375 C-6.37116784 10.70157935 -12.30666223 17.73262179 -18 25 C-18.66 24.67 -19.32 24.34 -20 24 C-19.28714844 23.16597656 -18.57429687 22.33195313 -17.83984375 21.47265625 C-12.87537895 15.6456363 -7.96896129 9.80750644 -3.33984375 3.70703125 C-2 2 -2 2 0 0 Z " fill="#0B0B0B" transform="translate(774,617)"/>
<path d="M0 0 C0.99 0.495 0.99 0.495 2 1 C2.44921875 3.109375 2.44921875 3.109375 2.6875 5.75 C2.77386719 6.61109375 2.86023438 7.4721875 2.94921875 8.359375 C3.00186173 11.0968102 2.55179758 13.32261598 2 16 C1.74045482 18.76681587 1.58875133 21.53790588 1.4375 24.3125 C1.39431641 25.05306641 1.35113281 25.79363281 1.30664062 26.55664062 C1.20129568 28.37091464 1.10021684 30.1854355 1 32 C0.67 32 0.34 32 0 32 C0 21.44 0 10.88 0 0 Z " fill="#070607" transform="translate(887,763)"/>
<path d="M0 0 C0.33 0 0.66 0 1 0 C1.98743109 7.00316511 2.45650882 14.02142295 1 21 C0.34 21.33 -0.32 21.66 -1 22 C-1.02887814 18.52085059 -1.04675687 15.04173169 -1.0625 11.5625 C-1.07087891 10.56927734 -1.07925781 9.57605469 -1.08789062 8.55273438 C-1.09111328 7.60849609 -1.09433594 6.66425781 -1.09765625 5.69140625 C-1.10289307 4.81685791 -1.10812988 3.94230957 -1.11352539 3.04125977 C-1 1 -1 1 0 0 Z " fill="#0D0D0E" transform="translate(888,680)"/>
<path d="M0 0 C0.33 0 0.66 0 1 0 C1.03738281 0.845625 1.07476562 1.69125 1.11328125 2.5625 C1.50436686 9.31064379 2.21653623 14.82797163 5 21 C4.01 21 3.02 21 2 21 C-0.95177432 15.22478937 -2.21815163 9.52377266 -2 3 C-1.34 2.01 -0.68 1.02 0 0 Z " fill="#151516" transform="translate(135,845)"/>
<path d="M0 0 C0.66 0 1.32 0 2 0 C1.12410286 5.10939999 -2.12539226 7.80325604 -6 11 C-9.48871955 13.22283427 -12.2362374 14.06943296 -16.4375 13.6875 C-17.283125 13.460625 -18.12875 13.23375 -19 13 C-19 12.67 -19 12.34 -19 12 C-18.443125 11.92523437 -17.88625 11.85046875 -17.3125 11.7734375 C-11.08011881 10.69961507 -6.50049812 8.51129068 -2 4 C-0.78367261 1.90321121 -0.78367261 1.90321121 0 0 Z " fill="#151515" transform="translate(884,864)"/>
<path d="M0 0 C4.80345175 2.21315785 8.5672824 5.53214876 12.625 8.875 C13.40101563 9.50019531 14.17703125 10.12539063 14.9765625 10.76953125 C15.7190625 11.37925781 16.4615625 11.98898437 17.2265625 12.6171875 C17.90283691 13.17003418 18.57911133 13.72288086 19.27587891 14.29248047 C21.07997435 16.07920428 22.00819198 17.67859887 23 20 C17.41373568 16.0098112 12.19202208 11.67126887 7 7.1875 C6.31671631 6.60009033 5.63343262 6.01268066 4.92944336 5.4074707 C4.29272705 4.85406006 3.65601074 4.30064941 3 3.73046875 C2.4225 3.22926514 1.845 2.72806152 1.25 2.21166992 C0.8375 1.81181885 0.425 1.41196777 0 1 C0 0.67 0 0.34 0 0 Z " fill="#0B0A0A" transform="translate(283,371)"/>
<path d="M0 0 C0.99 0 1.98 0 3 0 C7.61080173 4.62448363 9.81326543 10.24566511 10.25 16.6875 C10 20 10 20 8 23 C7.94392578 21.91332031 7.94392578 21.91332031 7.88671875 20.8046875 C7.30670543 12.2750798 4.78551553 6.93074663 0 0 Z " fill="#0A0B0B" transform="translate(879,150)"/>
<path d="M0 0 C0 3.62264954 -0.7274315 4.25262261 -2.9921875 6.9765625 C-3.61480469 7.729375 -4.23742187 8.4821875 -4.87890625 9.2578125 C-5.86697266 10.42957031 -5.86697266 10.42957031 -6.875 11.625 C-7.52597656 12.41390625 -8.17695313 13.2028125 -8.84765625 14.015625 C-13.71651786 19.85825893 -13.71651786 19.85825893 -16 21 C-14.22409413 16.80718082 -11.37487885 13.46855715 -8.5625 9.9375 C-8.07201172 9.31294922 -7.58152344 8.68839844 -7.07617188 8.04492188 C-4.83318751 5.20865149 -2.59559152 2.52442743 0 0 Z " fill="#090909" transform="translate(283,438)"/>
<path d="M0 0 C0.66 0 1.32 0 2 0 C3.11328125 1.49707031 3.11328125 1.49707031 4.3125 3.578125 C4.74820312 4.32707031 5.18390625 5.07601563 5.6328125 5.84765625 C6.30957031 7.03681641 6.30957031 7.03681641 7 8.25 C7.45117188 9.02730469 7.90234375 9.80460937 8.3671875 10.60546875 C10.34469779 14.02808271 12.25806733 17.45051391 14 21 C13.34 21.33 12.68 21.66 12 22 C3.55353075 7.40318907 3.55353075 7.40318907 0 0 Z " fill="#060506" transform="translate(437,317)"/>
<path d="M0 0 C1.32 0.33 2.64 0.66 4 1 C4.28571429 8.42857143 4.28571429 8.42857143 2 12 C1.34 12 0.68 12 0 12 C0 8.04 0 4.08 0 0 Z " fill="#191A1A" transform="translate(886,726)"/>
<path d="M0 0 C0.66 0.33 1.32 0.66 2 1 C1.56429687 1.49628906 1.12859375 1.99257813 0.6796875 2.50390625 C-3.24273979 6.97819019 -7.13544286 11.47564042 -11 16 C-11.66 15.67 -12.32 15.34 -13 15 C-11.02132918 12.68707408 -9.04208794 10.37464074 -7.0625 8.0625 C-6.49853516 7.40314453 -5.93457031 6.74378906 -5.35351562 6.06445312 C-4.81533203 5.43603516 -4.27714844 4.80761719 -3.72265625 4.16015625 C-3.22515869 3.57886963 -2.72766113 2.99758301 -2.21508789 2.39868164 C-1.5013317 1.57708043 -0.76957015 0.76957015 0 0 Z " fill="#0B0B0B" transform="translate(854,519)"/>
<path d="M0 0 C0.33 0 0.66 0 1 0 C1 4.95 1 9.9 1 15 C-0.32 15.33 -1.64 15.66 -3 16 C-3 15.34 -3 14.68 -3 14 C-2.34 14 -1.68 14 -1 14 C-1.20625 12.80375 -1.4125 11.6075 -1.625 10.375 C-2.13581838 6.4423982 -1.56734717 3.6878757 0 0 Z " fill="#0F0E0F" transform="translate(135,235)"/>
<path d="M0 0 C0 5.28 0 10.56 0 16 C-0.33 14.68 -0.66 13.36 -1 12 C-1.66 11.67 -2.32 11.34 -3 11 C-3 7.7 -3 4.4 -3 1 C-1 0 -1 0 0 0 Z " fill="#0F0F0F" transform="translate(136,712)"/>
<path d="M0 0 C0.66 0.33 1.32 0.66 2 1 C-1.96 5.62 -5.92 10.24 -10 15 C-10.66 14.67 -11.32 14.34 -12 14 C-10.18804029 11.85370835 -8.37545906 9.70794722 -6.5625 7.5625 C-6.04623047 6.95083984 -5.52996094 6.33917969 -4.99804688 5.70898438 C-1.11328125 1.11328125 -1.11328125 1.11328125 0 0 Z " fill="#0B0B0B" transform="translate(791,596)"/>
<path d="M0 0 C2.48982535 2.27745789 4.10368997 4.62335238 5.75 7.5625 C6.19859375 8.34753906 6.6471875 9.13257813 7.109375 9.94140625 C7.40328125 10.62074219 7.6971875 11.30007813 8 12 C7.67 12.66 7.34 13.32 7 14 C5.68 13.34 4.36 12.68 3 12 C3 10.02 3 8.04 3 6 C2.34 6 1.68 6 1 6 C0.67 4.02 0.34 2.04 0 0 Z " fill="#0E0E0E" transform="translate(408,389)"/>
<path d="M0 0 C4.66132863 3.57729872 7.73911534 7.10867301 11 12 C8.75 11.9375 8.75 11.9375 6 11 C4.43865376 8.6356757 3.19708856 6.52657401 2 4 C1.5875 3.195625 1.175 2.39125 0.75 1.5625 C0.5025 1.046875 0.255 0.53125 0 0 Z " fill="#0F0F0F" transform="translate(266,639)"/>
<path d="M0 0 C0.66 0.33 1.32 0.66 2 1 C1.67 1.61875 1.34 2.2375 1 2.875 C-0.14193235 4.91018344 -0.14193235 4.91018344 0 7 C-2.49064888 7.68707555 -4.37886292 8 -7 8 C-4.69 5.36 -2.38 2.72 0 0 Z " fill="#0C0C0D" transform="translate(248,481)"/>
<path d="M0 0 C0 3.80345877 -1.13786331 4.77701015 -3.5 7.6875 C-4.1496875 8.49574219 -4.799375 9.30398438 -5.46875 10.13671875 C-5.9740625 10.75160156 -6.479375 11.36648438 -7 12 C-7.66 11.34 -8.32 10.68 -9 10 C-6.03 6.7 -3.06 3.4 0 0 Z " fill="#0A0A0A" transform="translate(840,536)"/>
<path d="M0 0 C0.66 0.66 1.32 1.32 2 2 C-0.64 4.64 -3.28 7.28 -6 10 C-6.66 9.67 -7.32 9.34 -8 9 C-5.36 6.03 -2.72 3.06 0 0 Z " fill="#0E0F0F" transform="translate(313,401)"/>
<path d="M0 0 C3.71279784 1.44386582 4.9486443 3.12236392 6.75 6.625 C7.17796875 7.44226563 7.6059375 8.25953125 8.046875 9.1015625 C8.51867187 10.04128906 8.51867187 10.04128906 9 11 C8.01 11.495 8.01 11.495 7 12 C6.66226562 11.36191406 6.32453125 10.72382813 5.9765625 10.06640625 C5.53054688 9.24011719 5.08453125 8.41382813 4.625 7.5625 C4.18414062 6.73878906 3.74328125 5.91507812 3.2890625 5.06640625 C2.16581441 2.86533422 2.16581441 2.86533422 0 2 C0 1.34 0 0.68 0 0 Z " fill="#0B0B0B" transform="translate(424,296)"/>
<path d="M0 0 C0.33 0 0.66 0 1 0 C1 4.29 1 8.58 1 13 C-1.33061852 9.50407222 -1.70295038 7.15869464 -2 3 C-1.34 2.01 -0.68 1.02 0 0 Z " fill="#0F0F0F" transform="translate(135,845)"/>
<path d="M0 0 C0.66 0.33 1.32 0.66 2 1 C-0.97 5.95 -0.97 5.95 -4 11 C-4.66 10.67 -5.32 10.34 -6 10 C-4.02 6.7 -2.04 3.4 0 0 Z " fill="#0D0D0D" transform="translate(563,478)"/>
<path d="M0 0 C0.99 0 1.98 0 3 0 C4.38671875 1.4609375 4.38671875 1.4609375 5.6875 3.375 C6.12449219 4.00148437 6.56148437 4.62796875 7.01171875 5.2734375 C8 7 8 7 8 9 C7.34 9 6.68 9 6 9 C4.4921875 7.03125 4.4921875 7.03125 2.875 4.5 C2.33617187 3.6646875 1.79734375 2.829375 1.2421875 1.96875 C0.83226562 1.3190625 0.42234375 0.669375 0 0 Z " fill="#151515" transform="translate(879,150)"/>
<path d="M0 0 C0 3.58912412 -0.66436554 4.10857029 -3 6.6875 C-3.556875 7.31011719 -4.11375 7.93273437 -4.6875 8.57421875 C-5.120625 9.04472656 -5.55375 9.51523437 -6 10 C-6.66 9.67 -7.32 9.34 -8 9 C-5.36 6.03 -2.72 3.06 0 0 Z " fill="#080908" transform="translate(818,563)"/>
<path d="M0 0 C0.66 0.33 1.32 0.66 2 1 C-0.31 3.64 -2.62 6.28 -5 9 C-5.66 8.67 -6.32 8.34 -7 8 C-4.69 5.36 -2.38 2.72 0 0 Z " fill="#090909" transform="translate(256,471)"/>
<path d="M0 0 C6.57142857 5 6.57142857 5 8 10 C4.82537057 7.59757773 2.14248259 5.38286724 0 2 C0 1.34 0 0.68 0 0 Z " fill="#080807" transform="translate(249,544)"/>
<path d="M0 0 C0.66 0.33 1.32 0.66 2 1 C0.02 3.31 -1.96 5.62 -4 8 C-4.66 7.67 -5.32 7.34 -6 7 C-4.02 4.69 -2.04 2.38 0 0 Z " fill="#0A0A0B" transform="translate(304,412)"/>
<path d="M0 0 C0.66 0 1.32 0 2 0 C2 3.3 2 6.6 2 10 C-1.125 3.75 -1.125 3.75 0 0 Z " fill="#090A0A" transform="translate(134,333)"/>
<path d="M0 0 C0.66 0 1.32 0 2 0 C4.1875 2.75 4.1875 2.75 6 6 C5.67 7.32 5.34 8.64 5 10 C3.35 6.7 1.7 3.4 0 0 Z " fill="#121112" transform="translate(437,317)"/>
<path d="M0 0 C0.99 0.33 1.98 0.66 3 1 C1.02 1.99 1.02 1.99 -1 3 C-0.67 2.01 -0.34 1.02 0 0 Z " fill="#4E4E4F" transform="translate(145,144)"/>
<path d="M0 0 C4 1 4 1 4 1 Z " fill="#4D4C4C" transform="translate(868,879)"/>
<path d="M0 0 C0.66 0.66 1.32 1.32 2 2 C1.34 2 0.68 2 0 2 C0 1.34 0 0.68 0 0 Z " fill="#4F4F50" transform="translate(138,869)"/>
<path d="" fill="#504E4F" transform="translate(0,0)"/>
<path d="M0 0 C2 1 2 1 2 1 Z " fill="#504E4D" transform="translate(150,878)"/>
<path d="M0 0 C2 1 2 1 2 1 Z " fill="#4E4D4E" transform="translate(874,877)"/>
<path d="M0 0 C2 1 2 1 2 1 Z " fill="#504F50" transform="translate(884,871)"/>
<path d="" fill="#50504F" transform="translate(0,0)"/>
<path d="" fill="#4F4E4F" transform="translate(0,0)"/>
<path d="" fill="#4C4C4E" transform="translate(0,0)"/>
<path d="" fill="#4E4E4D" transform="translate(0,0)"/>
<path d="" fill="#4C4C4D" transform="translate(0,0)"/>
<path d="" fill="#4A4B49" transform="translate(0,0)"/>
<path d="" fill="#4E4D4D" transform="translate(0,0)"/>
<path d="" fill="#4F4F4F" transform="translate(0,0)"/>
<path d="" fill="#4F4F4E" transform="translate(0,0)"/>
<path d="" fill="#4A4A4A" transform="translate(0,0)"/>
<path d="" fill="#4F4E4E" transform="translate(0,0)"/>
<path d="" fill="#4C4C4D" transform="translate(0,0)"/>
<path d="" fill="#5F5F5E" transform="translate(0,0)"/>
<path d="" fill="#4E4E4F" transform="translate(0,0)"/>
<path d="" fill="#515052" transform="translate(0,0)"/>
<path d="" fill="#504E51" transform="translate(0,0)"/>
<path d="" fill="#4E4D50" transform="translate(0,0)"/>
<path d="" fill="#4F4D4F" transform="translate(0,0)"/>
<path d="" fill="#514F4F" transform="translate(0,0)"/>
<path d="" fill="#504E50" transform="translate(0,0)"/>
<path d="" fill="#4E504E" transform="translate(0,0)"/>
<path d="" fill="#4F4F4F" transform="translate(0,0)"/>
<path d="" fill="#4C4A4C" transform="translate(0,0)"/>
<path d="" fill="#4A4E4C" transform="translate(0,0)"/>
<path d="" fill="#4B4D4B" transform="translate(0,0)"/>
<path d="" fill="#4E4F4D" transform="translate(0,0)"/>
<path d="" fill="#4B4C4C" transform="translate(0,0)"/>
<path d="" fill="#4C4C4C" transform="translate(0,0)"/>
<path d="" fill="#4B4D4D" transform="translate(0,0)"/>
<path d="" fill="#4C4C4C" transform="translate(0,0)"/>
<path d="" fill="#4E4E4C" transform="translate(0,0)"/>
<path d="" fill="#4B4B4C" transform="translate(0,0)"/>
<path d="" fill="#4B4B4C" transform="translate(0,0)"/>
<path d="" fill="#4C4C4E" transform="translate(0,0)"/>
<path d="" fill="#50514F" transform="translate(0,0)"/>
<path d="" fill="#4E4E4C" transform="translate(0,0)"/>
<path d="" fill="#4E4E4D" transform="translate(0,0)"/>
<path d="" fill="#504F50" transform="translate(0,0)"/>
<path d="" fill="#4E4E4D" transform="translate(0,0)"/>
<path d="" fill="#4D4F4D" transform="translate(0,0)"/>
<path d="" fill="#4D4D4C" transform="translate(0,0)"/>
<path d="" fill="#4D4C4E" transform="translate(0,0)"/>
<path d="" fill="#4D4E4D" transform="translate(0,0)"/>
<path d="" fill="#4F4E4F" transform="translate(0,0)"/>
<path d="" fill="#505150" transform="translate(0,0)"/>
<path d="" fill="#4C4E4C" transform="translate(0,0)"/>
<path d="" fill="#4F4E50" transform="translate(0,0)"/>
<path d="" fill="#4D4F4E" transform="translate(0,0)"/>
<path d="" fill="#4E4E4E" transform="translate(0,0)"/>
<path d="" fill="#4F4F4F" transform="translate(0,0)"/>
<path d="" fill="#504E4F" transform="translate(0,0)"/>
<path d="" fill="#4E4E4E" transform="translate(0,0)"/>
<path d="" fill="#4F5050" transform="translate(0,0)"/>
<path d="" fill="#4F4F4F" transform="translate(0,0)"/>
<path d="" fill="#535353" transform="translate(0,0)"/>
<path d="" fill="#4F5050" transform="translate(0,0)"/>
<path d="" fill="#504F4E" transform="translate(0,0)"/>
<path d="" fill="#505450" transform="translate(0,0)"/>
<path d="" fill="#4D4F4D" transform="translate(0,0)"/>
<path d="" fill="#4E4E4D" transform="translate(0,0)"/>
<path d="" fill="#4D504F" transform="translate(0,0)"/>
<path d="" fill="#4D4F4F" transform="translate(0,0)"/>
<path d="" fill="#4D4E4E" transform="translate(0,0)"/>
<path d="" fill="#505151" transform="translate(0,0)"/>
<path d="" fill="#4F5050" transform="translate(0,0)"/>
<path d="" fill="#4E504F" transform="translate(0,0)"/>
<path d="" fill="#4F4F4F" transform="translate(0,0)"/>
<path d="" fill="#4F4F4F" transform="translate(0,0)"/>
<path d="" fill="#50504F" transform="translate(0,0)"/>
<path d="" fill="#4F4F4E" transform="translate(0,0)"/>
<path d="" fill="#4E4F4F" transform="translate(0,0)"/>
<path d="" fill="#525252" transform="translate(0,0)"/>
<path d="" fill="#4E4F4F" transform="translate(0,0)"/>
<path d="" fill="#504F51" transform="translate(0,0)"/>
<path d="" fill="#51514F" transform="translate(0,0)"/>
<path d="" fill="#4F504D" transform="translate(0,0)"/>
<path d="" fill="#4F4F4E" transform="translate(0,0)"/>
<path d="" fill="#4E4F4F" transform="translate(0,0)"/>
<path d="" fill="#4C4F4E" transform="translate(0,0)"/>
<path d="" fill="#515050" transform="translate(0,0)"/>
<path d="" fill="#4F4F4E" transform="translate(0,0)"/>
<path d="" fill="#50514E" transform="translate(0,0)"/>
<path d="" fill="#50514F" transform="translate(0,0)"/>
<path d="" fill="#4F4F50" transform="translate(0,0)"/>
<path d="" fill="#4F4E4F" transform="translate(0,0)"/>
<path d="" fill="#4F504F" transform="translate(0,0)"/>
<path d="" fill="#50504E" transform="translate(0,0)"/>
<path d="" fill="#4F5050" transform="translate(0,0)"/>
<path d="" fill="#4E4F4F" transform="translate(0,0)"/>
<path d="" fill="#504F4E" transform="translate(0,0)"/>
<path d="" fill="#4E4E4F" transform="translate(0,0)"/>
<path d="" fill="#535351" transform="translate(0,0)"/>
<path d="" fill="#4E4F4E" transform="translate(0,0)"/>
<path d="" fill="#4E4F4D" transform="translate(0,0)"/>
<path d="" fill="#4C4E4C" transform="translate(0,0)"/>
<path d="" fill="#4E4E4D" transform="translate(0,0)"/>
<path d="" fill="#4C4D4C" transform="translate(0,0)"/>
<path d="" fill="#4D4D4C" transform="translate(0,0)"/>
<path d="" fill="#4C4D4C" transform="translate(0,0)"/>
<path d="" fill="#4E4F4D" transform="translate(0,0)"/>
<path d="" fill="#4F4E4E" transform="translate(0,0)"/>
<path d="" fill="#4E4D4C" transform="translate(0,0)"/>
<path d="" fill="#4C4D4C" transform="translate(0,0)"/>
<path d="" fill="#4E4E4D" transform="translate(0,0)"/>
<path d="" fill="#4D4E4D" transform="translate(0,0)"/>
<path d="" fill="#4B4D4E" transform="translate(0,0)"/>
<path d="" fill="#504E4E" transform="translate(0,0)"/>
<path d="" fill="#4C4E4E" transform="translate(0,0)"/>
<path d="" fill="#4B4E4C" transform="translate(0,0)"/>
<path d="" fill="#4D4C4A" transform="translate(0,0)"/>
<path d="" fill="#4E4B4B" transform="translate(0,0)"/>
<path d="" fill="#4D4F4D" transform="translate(0,0)"/>
<path d="" fill="#4B4B4C" transform="translate(0,0)"/>
<path d="" fill="#4A4B49" transform="translate(0,0)"/>
<path d="" fill="#4B4B4A" transform="translate(0,0)"/>
<path d="" fill="#4A4B4A" transform="translate(0,0)"/>
<path d="" fill="#4D4D4D" transform="translate(0,0)"/>
<path d="" fill="#4C4A49" transform="translate(0,0)"/>
<path d="" fill="#4D4D4C" transform="translate(0,0)"/>
<path d="" fill="#4D4C4C" transform="translate(0,0)"/>
<path d="" fill="#4D4C4D" transform="translate(0,0)"/>
<path d="" fill="#4D4E4B" transform="translate(0,0)"/>
<path d="" fill="#4B4C4C" transform="translate(0,0)"/>
<path d="" fill="#4D4D4D" transform="translate(0,0)"/>
<path d="" fill="#4D4F4D" transform="translate(0,0)"/>
<path d="" fill="#4B4D4E" transform="translate(0,0)"/>
<path d="" fill="#4B4C4E" transform="translate(0,0)"/>
<path d="" fill="#4E4D4E" transform="translate(0,0)"/>
<path d="" fill="#4E4F4D" transform="translate(0,0)"/>
<path d="" fill="#504D4F" transform="translate(0,0)"/>
<path d="" fill="#4F504E" transform="translate(0,0)"/>
<path d="" fill="#515150" transform="translate(0,0)"/>
<path d="" fill="#4E4F4F" transform="translate(0,0)"/>
<path d="" fill="#514D4F" transform="translate(0,0)"/>
<path d="" fill="#524F50" transform="translate(0,0)"/>
<path d="" fill="#696968" transform="translate(0,0)"/>
</svg>
